<svg xmlns="http://www.w3.org/2000/svg" width="79" height="47" fill="none" viewBox="0 0 79 47"><path fill="#000" d="M22.2628 17.1472C22.2628 18.1027 22.3658 18.8775 22.5462 19.4456C22.7523 20.0137 23.01 20.6335 23.3708 21.3049C23.4996 21.5115 23.5511 21.7181 23.5511 21.8989C23.5511 22.1571 23.3965 22.4154 23.0615 22.6736L21.4382 23.7582C21.2063 23.9132 20.9744 23.9907 20.7682 23.9907C20.5106 23.9907 20.2529 23.8615 19.9952 23.6291C19.6345 23.2418 19.3252 22.8286 19.0676 22.4154C18.8099 21.9764 18.5522 21.4857 18.2688 20.8918C16.2589 23.2676 13.7337 24.4555 10.6931 24.4555C8.52865 24.4555 6.80222 23.8357 5.53961 22.5961C4.277 21.3566 3.63281 19.7038 3.63281 17.6379C3.63281 15.4429 4.40584 13.661 5.97766 12.3181C7.54948 10.9753 9.63665 10.3038 12.2907 10.3038C13.1668 10.3038 14.0687 10.3813 15.0221 10.5104C15.9755 10.6396 16.9546 10.8461 17.9853 11.0786V9.1934C17.9853 7.23076 17.5731 5.86208 16.7743 5.06153C15.9497 4.26098 14.5583 3.87362 12.5742 3.87362C11.6723 3.87362 10.7447 3.97691 9.79126 4.20933C8.83786 4.44175 7.91023 4.72582 7.00836 5.08735C6.59608 5.26812 6.28687 5.37142 6.1065 5.42307C5.92612 5.47472 5.79729 5.50054 5.69422 5.50054C5.33347 5.50054 5.1531 5.2423 5.1531 4.69999V3.43461C5.1531 3.02142 5.20463 2.71153 5.33347 2.53076C5.46231 2.34999 5.69422 2.16922 6.05496 1.98845C6.95683 1.52362 8.03906 1.13626 9.30167 0.826365C10.5643 0.490651 11.9042 0.335706 13.3214 0.335706C16.3877 0.335706 18.6295 1.03296 20.0725 2.42746C21.4897 3.82197 22.2112 5.93955 22.2112 8.78021V17.1472H22.2628ZM11.8011 21.0725C12.6515 21.0725 13.5276 20.9176 14.4552 20.6077C15.3828 20.2978 16.2074 19.7297 16.9031 18.9549C17.3154 18.4643 17.6246 17.922 17.7792 17.3022C17.9338 16.6824 18.0369 15.9335 18.0369 15.0555V13.9709C17.2896 13.7901 16.4908 13.6352 15.6663 13.5319C14.8417 13.4286 14.0429 13.3769 13.2441 13.3769C11.5177 13.3769 10.2551 13.7126 9.40474 14.4099C8.55441 15.1071 8.14213 16.0885 8.14213 17.3797C8.14213 18.5934 8.45134 19.4972 9.09553 20.117C9.71395 20.7626 10.6158 21.0725 11.8011 21.0725ZM32.4925 23.8615C32.0286 23.8615 31.7194 23.7841 31.5133 23.6033C31.3072 23.4483 31.1268 23.0868 30.9722 22.5961L24.9168 2.63406C24.7622 2.11757 24.6849 1.78186 24.6849 1.60109C24.6849 1.1879 24.891 0.955486 25.3033 0.955486H27.8285C28.3181 0.955486 28.6531 1.03296 28.8335 1.21373C29.0396 1.36867 29.1942 1.73021 29.3488 2.22087L33.6778 19.3165L37.6975 2.22087C37.8263 1.70439 37.9809 1.36867 38.1871 1.21373C38.3932 1.05878 38.754 0.955486 39.2178 0.955486H41.2792C41.7688 0.955486 42.1038 1.03296 42.3099 1.21373C42.516 1.36867 42.6964 1.73021 42.7995 2.22087L46.8708 19.5231L51.3285 2.22087C51.4831 1.70439 51.6635 1.36867 51.8439 1.21373C52.05 1.05878 52.385 0.955486 52.8488 0.955486H55.2452C55.6575 0.955486 55.8894 1.16208 55.8894 1.60109C55.8894 1.73021 55.8636 1.85933 55.8379 2.01428C55.8121 2.16922 55.7606 2.37582 55.6575 2.65988L49.4475 22.622C49.2929 23.1385 49.1125 23.4742 48.9064 23.6291C48.7003 23.7841 48.3653 23.8874 47.9272 23.8874H45.7112C45.2216 23.8874 44.8867 23.8099 44.6805 23.6291C44.4744 23.4483 44.294 23.1126 44.1909 22.5961L40.197 5.93955L36.2288 22.5703C36.0999 23.0868 35.9453 23.4225 35.7392 23.6033C35.533 23.7841 35.1723 23.8615 34.7085 23.8615H32.4925ZM65.6038 24.5588C64.2639 24.5588 62.9239 24.4038 61.6356 24.094C60.3472 23.7841 59.3422 23.4483 58.6723 23.061C58.26 22.8286 57.9766 22.5703 57.8735 22.3379C57.7704 22.1055 57.7189 21.8472 57.7189 21.6148V20.2978C57.7189 19.7555 57.925 19.4972 58.3115 19.4972C58.4662 19.4972 58.6208 19.5231 58.7754 19.5747C58.93 19.6264 59.1619 19.7297 59.4196 19.833C60.2956 20.2203 61.249 20.5302 62.254 20.7368C63.2847 20.9434 64.2896 21.0467 65.3203 21.0467C66.9437 21.0467 68.2063 20.7626 69.0824 20.1945C69.9585 19.6264 70.4223 18.8 70.4223 17.7412C70.4223 17.0181 70.1904 16.4242 69.7266 15.9335C69.2628 15.4429 68.3867 15.0038 67.124 14.5907L63.3878 13.4286C61.5067 12.8346 60.1153 11.9566 59.2649 10.7945C58.4146 9.65823 57.9766 8.39285 57.9766 7.04999C57.9766 5.96538 58.2085 5.00988 58.6723 4.18351C59.1361 3.35713 59.7545 2.63406 60.5276 2.06593C61.3006 1.47197 62.1767 1.03296 63.2074 0.723069C64.2381 0.413178 65.3203 0.284058 66.4541 0.284058C67.021 0.284058 67.6136 0.309882 68.1805 0.387354C68.7732 0.464827 69.3143 0.568124 69.8554 0.67142C70.3708 0.800541 70.8603 0.929662 71.3242 1.08461C71.788 1.23955 72.1487 1.3945 72.4064 1.54944C72.7671 1.75604 73.0248 1.96263 73.1794 2.19505C73.334 2.40164 73.4113 2.68571 73.4113 3.04724V4.26098C73.4113 4.80329 73.2052 5.08735 72.8187 5.08735C72.6125 5.08735 72.2775 4.98406 71.8395 4.77746C70.3708 4.10604 68.7216 3.77032 66.8921 3.77032C65.4234 3.77032 64.2639 4.00274 63.4651 4.4934C62.6663 4.98406 62.254 5.73296 62.254 6.79175C62.254 7.51483 62.5117 8.13461 63.027 8.62527C63.5424 9.11593 64.4958 9.60659 65.8614 10.0456L69.5204 11.2077C71.3757 11.8016 72.7156 12.628 73.5144 13.6868C74.3132 14.7456 74.6997 15.9593 74.6997 17.3022C74.6997 18.4126 74.4678 19.4198 74.0297 20.2978C73.5659 21.1758 72.9475 21.9505 72.1487 22.5703C71.3499 23.2159 70.3965 23.6808 69.2885 24.0165C68.129 24.378 66.9179 24.5588 65.6038 24.5588Z"/><path fill="#000" fill-rule="evenodd" d="M70.4741 37.0226C61.9966 43.2978 49.6797 46.6292 39.0893 46.6292C24.2471 46.6292 10.8738 41.1286 0.772916 31.9868C-0.0258783 31.2638 0.695613 30.2825 1.64901 30.8506C12.5745 37.2033 26.0509 41.0511 39.9911 41.0511C49.3963 41.0511 59.7291 39.0885 69.2373 35.0599C70.6545 34.4143 71.8656 35.9896 70.4741 37.0226Z" clip-rule="evenodd"/><path fill="#000" fill-rule="evenodd" d="M74.0044 32.994C72.9222 31.5995 66.8411 32.3225 64.0839 32.6583C63.2594 32.7616 63.1305 32.0385 63.8778 31.4962C68.7221 28.0874 76.6843 29.0687 77.6119 30.205C78.5395 31.367 77.3542 39.3467 72.8191 43.1687C72.1234 43.7626 71.4535 43.4528 71.7627 42.678C72.7934 40.1214 75.0867 34.3627 74.0044 32.994Z" clip-rule="evenodd"/></svg>