<svg width="191" height="40" viewBox="0 0 191 40" fill="none" xmlns="http://www.w3.org/2000/svg">
<path d="M13.8506 32.1572C12.1162 32.1795 10.3952 31.8482 8.79071 31.1829C7.1862 30.5177 5.73117 29.5323 4.51278 28.2858C3.25604 27.0922 2.2587 25.6479 1.58405 24.0444C0.909406 22.441 0.57217 20.7135 0.593747 18.9715C0.573032 17.2297 0.910657 15.5024 1.58525 13.8991C2.25985 12.2958 3.25672 10.8514 4.51278 9.65724C5.7252 8.39781 7.17755 7.39921 8.78234 6.72159C10.3871 6.04397 12.1112 5.70135 13.8506 5.71438C15.5079 5.69207 17.1532 6.00264 18.6906 6.62802C20.2281 7.25339 21.6271 8.18111 22.8063 9.35724L20.288 11.9429C18.5633 10.26 16.2487 9.33544 13.8506 9.37152C12.6066 9.35609 11.373 9.60213 10.2282 10.094C9.08341 10.5859 8.05249 11.3128 7.20093 12.2287C6.31592 13.1152 5.61776 14.1734 5.14848 15.3396C4.67921 16.5058 4.44853 17.7558 4.47034 19.0144C4.45996 20.2586 4.6962 21.4923 5.16514 22.643C5.63409 23.7936 6.32627 24.8379 7.20093 25.7144C8.95298 27.4774 11.3173 28.4803 13.7906 28.5096C16.264 28.539 18.651 27.5925 20.4436 25.8715C21.5534 24.6444 22.2342 23.0838 22.3819 21.4287H13.893V17.7715H25.9048C26.0228 18.5081 26.0702 19.2544 26.0463 20.0001C26.121 21.5435 25.8849 23.0862 25.3523 24.5349C24.8198 25.9836 24.0018 27.3082 22.9478 28.4287C21.776 29.6606 20.3602 30.6294 18.7927 31.2718C17.2252 31.9142 15.5413 32.2159 13.8506 32.1572ZM41.779 29.7287C40.167 31.2889 38.0203 32.16 35.7873 32.16C33.5542 32.16 31.4076 31.2889 29.7955 29.7287C28.9932 28.9431 28.3613 27.9978 27.9399 26.9526C27.5186 25.9074 27.317 24.7853 27.3479 23.6572C27.3178 22.5293 27.5198 21.4074 27.9411 20.3623C28.3624 19.3173 28.9939 18.3719 29.7955 17.5858C31.4092 16.0288 33.5553 15.1599 35.7873 15.1599C38.0193 15.1599 40.1653 16.0288 41.779 17.5858C42.5807 18.3719 43.2121 19.3173 43.6334 20.3623C44.0547 21.4074 44.2567 22.5293 44.2266 23.6572C44.2558 24.7863 44.0519 25.9091 43.6281 26.9544C43.2043 27.9996 42.5698 28.9444 41.7649 29.7287H41.779ZM32.4412 27.3429C32.87 27.8053 33.3882 28.1739 33.9638 28.4258C34.5393 28.6778 35.16 28.8078 35.7873 28.8078C36.4146 28.8078 37.0352 28.6778 37.6108 28.4258C38.1863 28.1739 38.7045 27.8053 39.1333 27.3429C39.6008 26.855 39.9669 26.2776 40.2099 25.6446C40.4529 25.0116 40.5679 24.3358 40.5481 23.6572C40.569 22.9764 40.4545 22.2982 40.2115 21.6627C39.9685 21.0272 39.6019 20.4473 39.1333 19.9572C38.6989 19.4996 38.1772 19.1355 37.5997 18.8867C37.0223 18.6379 36.4009 18.5097 35.7731 18.5097C35.1453 18.5097 34.524 18.6379 33.9465 18.8867C33.3691 19.1355 32.8474 19.4996 32.4129 19.9572C31.9443 20.4473 31.5777 21.0272 31.3347 21.6627C31.0917 22.2982 30.9773 22.9764 30.9981 23.6572C30.9802 24.3368 31.0975 25.0132 31.3429 25.6462C31.5884 26.2793 31.957 26.8562 32.4271 27.3429H32.4412ZM60.1999 29.7287C58.5879 31.2889 56.4412 32.16 54.2082 32.16C51.9751 32.16 49.8284 31.2889 48.2164 29.7287C47.4141 28.9431 46.7822 27.9978 46.3608 26.9526C45.9395 25.9074 45.7379 24.7853 45.7688 23.6572C45.7387 22.5293 45.9407 21.4074 46.362 20.3623C46.7833 19.3173 47.4148 18.3719 48.2164 17.5858C49.8284 16.0255 51.9751 15.1545 54.2082 15.1545C56.4412 15.1545 58.5879 16.0255 60.1999 17.5858C61.0016 18.3719 61.633 19.3173 62.0543 20.3623C62.4756 21.4074 62.6776 22.5293 62.6475 23.6572C62.6785 24.7853 62.4768 25.9074 62.0555 26.9526C61.6341 27.9978 61.0023 28.9431 60.1999 29.7287ZM50.8621 27.3429C51.2909 27.8053 51.8091 28.1739 52.3846 28.4258C52.9602 28.6778 53.5808 28.8078 54.2082 28.8078C54.8355 28.8078 55.4561 28.6778 56.0317 28.4258C56.6072 28.1739 57.1254 27.8053 57.5542 27.3429C58.0217 26.855 58.3878 26.2776 58.6307 25.6446C58.8737 25.0116 58.9888 24.3358 58.969 23.6572C58.9899 22.9764 58.8754 22.2982 58.6324 21.6627C58.3894 21.0272 58.0228 20.4473 57.5542 19.9572C57.1197 19.4996 56.5981 19.1355 56.0206 18.8867C55.4432 18.6379 54.8218 18.5097 54.194 18.5097C53.5662 18.5097 52.9449 18.6379 52.3674 18.8867C51.7899 19.1355 51.2683 19.4996 50.8338 19.9572C50.3652 20.4473 49.9986 21.0272 49.7556 21.6627C49.5126 22.2982 49.3982 22.9764 49.419 23.6572C49.4011 24.3368 49.5184 25.0132 49.7638 25.6462C50.0092 26.2793 50.3779 26.8562 50.848 27.3429H50.8621ZM72.3107 39.7858C70.6149 39.8403 68.952 39.3058 67.5994 38.2715C66.3984 37.3599 65.4526 36.1489 64.8546 34.7572L68.0804 33.4001C68.4315 34.2318 68.9807 34.963 69.6792 35.5287C70.4268 36.1372 71.365 36.4563 72.3249 36.4287C72.9336 36.4661 73.5431 36.3706 74.1119 36.1487C74.6808 35.9268 75.1956 35.5838 75.6214 35.143C76.4738 34.1048 76.8946 32.7735 76.7957 31.4287V30.2001H76.6683C76.1292 30.8467 75.4483 31.3576 74.6797 31.6923C73.911 32.0271 73.0757 32.1765 72.24 32.1287C71.1777 32.1319 70.1264 31.9127 69.1523 31.4848C68.1782 31.057 67.3026 30.4298 66.5807 29.643C65.7974 28.8623 65.1792 27.9294 64.7633 26.9005C64.3475 25.8717 64.1427 24.7683 64.1614 23.6572C64.1418 22.5397 64.3461 21.4296 64.7618 20.3937C65.1775 19.3577 65.7962 18.4173 66.5807 17.6287C67.3008 16.8385 68.1757 16.2082 69.15 15.7778C70.1243 15.3474 71.1765 15.1264 72.24 15.1287C73.1399 15.1271 74.0291 15.3271 74.8432 15.7144C75.5475 16.0249 76.1755 16.4883 76.6825 17.0715H76.8098V15.7144H80.3186V30.9287C80.4109 32.1322 80.2591 33.3421 79.8723 34.4843C79.4854 35.6266 78.8718 36.6771 78.069 37.5715C77.3043 38.3102 76.4008 38.8867 75.4118 39.267C74.4228 39.6474 73.3683 39.8237 72.3107 39.7858ZM72.5654 28.8144C73.1695 28.8278 73.7692 28.7067 74.3218 28.4599C74.8744 28.213 75.3664 27.8463 75.7629 27.3858C76.6358 26.3757 77.096 25.0685 77.0503 23.7287C77.1027 22.3663 76.6428 21.0343 75.7629 20.0001C75.367 19.5389 74.8751 19.1716 74.3224 18.9247C73.7696 18.6777 73.1697 18.5571 72.5654 18.5715C71.9447 18.5587 71.3285 18.6794 70.7576 18.9257C70.1868 19.172 69.6745 19.5383 69.2547 20.0001C68.3188 20.9971 67.8104 22.3267 67.8399 23.7001C67.8255 24.3737 67.9431 25.0436 68.1859 25.6712C68.4287 26.2988 68.7919 26.8718 69.2547 27.3572C69.6725 27.8235 70.1838 28.1946 70.7546 28.4459C71.3254 28.6971 71.9427 28.8227 72.5654 28.8144ZM86.5579 6.67152V31.643H82.8652V6.67152H86.5579ZM96.688 32.1572C95.5821 32.1859 94.4822 31.9838 93.4573 31.5634C92.4324 31.1431 91.5044 30.5136 90.7316 29.7144C89.9474 28.921 89.331 27.975 88.92 26.9338C88.509 25.8925 88.3119 24.7778 88.3406 23.6572C88.2987 22.534 88.4814 21.4137 88.8776 20.3632C89.2738 19.3127 89.8755 18.3536 90.6467 17.5429C91.3735 16.7693 92.2523 16.1575 93.2268 15.7467C94.2014 15.3359 95.2501 15.1351 96.306 15.1572C97.2769 15.1469 98.2397 15.3365 99.1356 15.7144C99.9426 16.0433 100.678 16.5286 101.3 17.143C101.835 17.6638 102.309 18.2436 102.715 18.8715C103.043 19.4017 103.323 19.9612 103.55 20.5429L103.932 21.5144L92.6133 26.2144C92.9556 27.0085 93.5282 27.6793 94.2556 28.1383C94.983 28.5974 95.831 28.8231 96.688 28.7858C97.5218 28.7881 98.3419 28.5722 99.0684 28.1591C99.7949 27.7459 100.403 27.1498 100.833 26.4287L103.663 28.3572C102.941 29.4004 102.017 30.2849 100.947 30.9572C99.6738 31.7692 98.1932 32.1864 96.688 32.1572ZM91.9625 23.4001L99.4893 20.243C99.2574 19.6863 98.8427 19.2272 98.315 18.943C97.7241 18.606 97.0553 18.4335 96.3767 18.4429C95.2253 18.4731 94.1322 18.9608 93.3349 19.8001C92.8577 20.2611 92.4873 20.8229 92.2501 21.4452C92.0128 22.0675 91.9146 22.735 91.9625 23.4001Z" fill="black"/>
<path d="M123.273 32.157C121.703 32.1843 120.143 31.891 118.688 31.2946C117.232 30.6981 115.911 29.8109 114.804 28.6861C113.697 27.5614 112.826 26.2223 112.244 24.7493C111.662 23.2762 111.381 21.6996 111.417 20.1141C111.381 18.5286 111.662 16.952 112.244 15.479C112.826 14.0059 113.697 12.6668 114.804 11.5421C115.911 10.4173 117.232 9.53007 118.688 8.93364C120.143 8.33721 121.703 8.04387 123.273 8.07125C124.863 8.02107 126.443 8.33421 127.896 8.98727C129.349 9.64034 130.636 10.6164 131.663 11.8427L129.626 13.8427C128.872 12.8854 127.905 12.1212 126.804 11.6123C125.702 11.1035 124.498 10.8642 123.287 10.9141C122.123 10.8876 120.964 11.0992 119.882 11.5362C118.8 11.9732 117.817 12.6265 116.992 13.457C116.133 14.3284 115.463 15.3696 115.022 16.5153C114.581 17.6609 114.38 18.8862 114.431 20.1141C114.38 21.342 114.581 22.5673 115.022 23.7129C115.463 24.8586 116.133 25.8998 116.992 26.7712C117.817 27.6017 118.8 28.255 119.882 28.692C120.964 29.129 122.123 29.3406 123.287 29.3141C124.64 29.3294 125.978 29.0368 127.202 28.4581C128.427 27.8793 129.507 27.0293 130.362 25.9712L132.399 28.0284C131.332 29.3164 129.993 30.3464 128.48 31.0427C126.849 31.803 125.07 32.1838 123.273 32.157Z" fill="black"/>
<path d="M137.873 31.6428H134.945V8.57141H137.873V31.6428Z" fill="black"/>
<path d="M142.656 17.7572C144.191 16.2184 146.266 15.3547 148.429 15.3547C150.591 15.3547 152.666 16.2184 154.201 17.7572C154.952 18.5573 155.538 19.4993 155.926 20.529C156.315 21.5587 156.498 22.6558 156.465 23.7572C156.498 24.8586 156.315 25.9558 155.926 26.9855C155.538 28.0152 154.952 28.9572 154.201 29.7572C152.666 31.2961 150.591 32.1597 148.429 32.1597C146.266 32.1597 144.191 31.2961 142.656 29.7572C141.906 28.9572 141.319 28.0152 140.931 26.9855C140.542 25.9558 140.359 24.8586 140.392 23.7572C140.359 22.6558 140.542 21.5587 140.931 20.529C141.319 19.4993 141.906 18.5573 142.656 17.7572ZM144.835 27.9001C145.296 28.3925 145.852 28.7847 146.469 29.0528C147.086 29.3208 147.75 29.4591 148.422 29.4591C149.093 29.4591 149.757 29.3208 150.374 29.0528C150.991 28.7847 151.547 28.3925 152.008 27.9001C152.52 27.3455 152.917 26.6935 153.177 25.9823C153.437 25.271 153.554 24.5147 153.522 23.7572C153.554 22.9998 153.437 22.2434 153.177 21.5322C152.917 20.8209 152.52 20.169 152.008 19.6144C151.547 19.122 150.991 18.7298 150.374 18.4617C149.757 18.1937 149.093 18.0554 148.422 18.0554C147.75 18.0554 147.086 18.1937 146.469 18.4617C145.852 18.7298 145.296 19.122 144.835 19.6144C144.323 20.169 143.926 20.8209 143.666 21.5322C143.406 22.2434 143.289 22.9998 143.321 23.7572C143.292 24.5133 143.413 25.2675 143.675 25.9763C143.937 26.685 144.336 27.3341 144.849 27.8858L144.835 27.9001Z" fill="black"/>
<path d="M172.692 31.6429H169.863V29.4572H169.778C169.274 30.2873 168.561 30.9676 167.712 31.4286C166.831 31.9443 165.83 32.2154 164.812 32.2143C163.985 32.2714 163.156 32.1392 162.386 31.8275C161.617 31.5159 160.928 31.0328 160.369 30.4143C159.297 29.0455 158.759 27.3279 158.855 25.5857V15.8715H161.784V25.0429C161.784 27.9857 163.071 29.4572 165.646 29.4572C166.218 29.4752 166.787 29.3549 167.303 29.1065C167.82 28.858 168.271 28.4884 168.617 28.0286C169.377 27.0572 169.781 25.8515 169.763 24.6143V15.8715H172.692V31.6429Z" fill="black"/>
<path d="M182.638 32.1572C181.645 32.1606 180.663 31.9465 179.759 31.5297C178.855 31.1129 178.052 30.5034 177.404 29.743C175.937 28.1071 175.151 25.9631 175.211 23.7572C175.151 21.5514 175.937 19.4074 177.404 17.7715C178.052 17.0111 178.855 16.4016 179.759 15.9848C180.663 15.568 181.645 15.3539 182.638 15.3572C183.751 15.3395 184.851 15.6048 185.836 16.1287C186.701 16.5684 187.434 17.2344 187.958 18.0572H188.085L187.958 15.8715V8.57153H190.887V31.643H188.057V29.4572H187.93C187.406 30.2801 186.673 30.9461 185.808 31.3858C184.831 31.9051 183.742 32.1702 182.638 32.1572ZM183.119 29.4572C183.781 29.467 184.438 29.3344 185.045 29.0684C185.653 28.8024 186.197 28.4091 186.642 27.9144C187.637 26.7706 188.146 25.2769 188.057 23.7572C188.146 22.2376 187.637 20.7439 186.642 19.6001C186.194 19.1027 185.648 18.7054 185.039 18.4335C184.43 18.1616 183.771 18.0211 183.105 18.0211C182.439 18.0211 181.781 18.1616 181.172 18.4335C180.563 18.7054 180.016 19.1027 179.568 19.6001C179.074 20.1627 178.695 20.8182 178.452 21.5291C178.209 22.2401 178.108 22.9924 178.153 23.743C178.108 24.4935 178.209 25.2459 178.452 25.9568C178.695 26.6677 179.074 27.3232 179.568 27.8858C180.014 28.3893 180.562 28.7902 181.175 29.0613C181.787 29.3325 182.451 29.4675 183.119 29.4572Z" fill="black"/>
</svg>
