<svg width="104" height="42" viewBox="0 0 104 42" fill="none" xmlns="http://www.w3.org/2000/svg">
<g clip-path="url(#clip0_1593_2086)">
<path d="M24.6011 14.8025C23.9367 14.6592 23.1824 14.5338 22.3205 14.4621C22.8053 14.3726 23.2902 14.2651 23.7391 14.1397C24.7089 13.871 25.5708 13.4591 26.3071 12.9396C27.0613 12.4202 27.636 11.7395 28.049 10.8977C28.4621 10.0558 28.6776 9.03487 28.6776 7.83478C28.6776 6.06152 28.2645 4.59275 27.4564 3.46431C26.6483 2.31796 25.517 1.49402 24.0624 0.956664C22.6078 0.419311 20.9018 0.150635 18.9264 0.150635H1.65088V12.0799V13.6382V25.5495H6.87664V16.1638H16.7535C18.4056 16.1638 19.6627 16.2712 20.5426 16.4862C21.4226 16.7011 22.0331 17.0593 22.3743 17.5967C22.7155 18.134 22.8771 18.8863 22.8771 19.8536V25.5495H28.1388V19.5133C28.1388 18.0982 27.8515 17.0414 27.2589 16.307C26.6663 15.5727 25.7863 15.0711 24.6011 14.8025ZM18.9264 12.0799H6.89459V4.62858H18.9264C20.399 4.62858 21.5123 4.93308 22.2845 5.52416C23.0567 6.13316 23.4518 7.01084 23.4518 8.15719C23.4518 9.35728 23.0567 10.3066 22.2845 11.0231C21.5303 11.7216 20.399 12.0799 18.9264 12.0799Z" fill="white"/>
<path d="M98.0489 0.150635L89.8241 20.4984L82.0124 0.150635H75.9965L68.1669 20.4984L59.9422 0.150635H57.1766H54.1597H32.3408V25.5316H57.2125V21.179H37.5845V14.9458H53.6389V10.826H37.5845V4.50319H55.9914L64.8985 25.5316H71.3095L79.0135 5.64955L86.6815 25.5316H93.0925L103.724 0.150635H98.0489Z" fill="white"/>
<path d="M5.61975 31.926H3.26726V36.3681C3.26726 37.0488 3.51867 37.4786 4.43452 37.4786C4.81164 37.4786 5.11692 37.4607 5.45812 37.3712V38.8399C5.26059 38.9116 4.81164 38.9832 4.34473 38.9832C2.51303 38.9832 1.669 38.0697 1.669 36.3502V31.926H-0.019043V30.4035H1.669V28.2183H3.26726V30.4035H5.61975V31.926Z" fill="white"/>
<path d="M15.1195 35.2754H8.20573C8.43919 36.583 9.55258 37.5144 10.8635 37.5144C12.0487 37.5144 12.767 37.0487 13.198 36.3143H14.8502C14.3114 37.8726 12.7311 38.9831 10.8635 38.9831C8.3494 38.9831 6.53564 37.1382 6.53564 34.6127C6.53564 32.0871 8.34939 30.2422 10.8455 30.2422C13.629 30.2422 15.353 32.2125 15.1195 35.2754ZM8.22369 33.8783H13.4135C13.2699 32.517 12.2104 31.6572 10.8276 31.6572C9.48075 31.6572 8.45714 32.5886 8.22369 33.8783Z" fill="white"/>
<path d="M20.9021 30.2422C22.7517 30.2422 24.4218 31.4423 24.9067 33.1797H23.1468C22.7517 32.2841 21.8718 31.7109 20.8123 31.7109C19.214 31.7109 18.0647 32.9648 18.0647 34.6127C18.0647 36.2605 19.214 37.5144 20.8123 37.5144C21.8538 37.5144 22.7517 36.9412 23.1468 36.0456H24.9067C24.4398 37.801 22.7697 38.9831 20.9021 38.9831C18.37 38.9831 16.4126 37.0845 16.4126 34.6127C16.4126 32.1408 18.37 30.2422 20.9021 30.2422Z" fill="white"/>
<path d="M34.5859 34.1649V38.8219H32.9877V34.2007C32.9877 32.6782 31.9641 31.7826 30.6711 31.7826C29.2884 31.7826 28.2648 32.9827 28.2648 34.3798V38.8398H26.6665V28.2361H28.1929V31.5498C28.8394 30.7796 29.8271 30.2601 30.8507 30.2601C32.9159 30.2422 34.5859 31.5139 34.5859 34.1649Z" fill="white"/>
<path d="M45.0376 34.1649V38.8219H43.4394V34.2007C43.4394 32.6782 42.4157 31.7826 41.1228 31.7826C39.6323 31.7826 38.7164 32.9648 38.7164 34.344V38.8398H37.1182V30.4213H38.6266V31.7647C39.2372 30.8512 40.2608 30.2422 41.4101 30.2422C43.4214 30.2422 45.0376 31.5139 45.0376 34.1649Z" fill="white"/>
<path d="M46.8154 34.6127C46.8154 32.1408 48.7728 30.2422 51.3049 30.2422C53.819 30.2422 55.7585 32.1408 55.7585 34.6127C55.7585 37.0845 53.819 38.9831 51.3049 38.9831C48.7728 38.9831 46.8154 37.0845 46.8154 34.6127ZM54.1063 34.6127C54.1063 32.9827 52.8852 31.7109 51.3049 31.7109C49.7067 31.7109 48.4676 32.9648 48.4676 34.6127C48.4676 36.2605 49.7067 37.5144 51.3049 37.5144C52.8852 37.5144 54.1063 36.2426 54.1063 34.6127Z" fill="white"/>
<path d="M57.6797 28.2183H59.2779V38.822H57.6797V28.2183Z" fill="white"/>
<path d="M61.2354 34.6127C61.2354 32.1408 63.1928 30.2422 65.7248 30.2422C68.2389 30.2422 70.1784 32.1408 70.1784 34.6127C70.1784 37.0845 68.2389 38.9831 65.7248 38.9831C63.1928 38.9831 61.2354 37.0845 61.2354 34.6127ZM68.5083 34.6127C68.5083 32.9827 67.2872 31.7109 65.7069 31.7109C64.1086 31.7109 62.8695 32.9648 62.8695 34.6127C62.8695 36.2605 64.1086 37.5144 65.7069 37.5144C67.3051 37.5144 68.5083 36.2426 68.5083 34.6127Z" fill="white"/>
<path d="M78.3495 30.4034H79.8759V38.1413C79.8759 40.5594 78.2597 41.849 75.7815 41.849C73.7163 41.849 72.2617 40.8639 71.9744 39.2339H73.5547C73.7881 40.0578 74.5962 40.5056 75.8713 40.5056C77.4695 40.5056 78.2776 39.7712 78.2776 38.3204V37.3532C77.5773 38.2129 76.5178 38.7503 75.3505 38.7503C73.1237 38.7503 71.4536 36.9233 71.4536 34.4873C71.4536 32.0871 73.1417 30.2422 75.3505 30.2422C76.5896 30.2422 77.6671 30.8154 78.3674 31.7468V30.4034H78.3495ZM78.3135 34.541C78.3135 32.911 77.2001 31.7289 75.6737 31.7289C74.1653 31.7289 73.0698 32.911 73.0698 34.541C73.0698 36.171 74.1653 37.3532 75.6737 37.3532C77.2001 37.3352 78.3135 36.171 78.3135 34.541Z" fill="white"/>
<path d="M89.0163 30.4036H90.7583L86.6639 39.7535C86.2688 40.6491 85.6941 41.7059 84.0779 41.7059C83.5392 41.7059 83.0364 41.688 82.8029 41.6701V40.1655C83.2698 40.2013 83.4494 40.2013 83.9343 40.2013C84.6167 40.2013 84.9219 39.7714 85.1554 39.252L85.4068 38.6609L81.2944 30.4036H83.1621L86.2508 36.7085L89.0163 30.4036Z" fill="white"/>
<path d="M103.706 38.1057H93.0928V39.879H103.706V38.1057Z" fill="#FFCC33"/>
</g>
<defs>
<clipPath id="clip0_1593_2086">
<rect width="104" height="42" fill="white"/>
</clipPath>
</defs>
</svg>
