<svg width="142" height="40" viewBox="0 0 142 40" fill="none" xmlns="http://www.w3.org/2000/svg">
<g clip-path="url(#clip0_944_6105)">
<path d="M24.4341 37.8638C31.2198 36.6918 36.8243 35.7219 36.8887 35.7086L37.0058 35.6843L30.5994 28.2335C27.0759 24.1356 24.1931 20.7669 24.1931 20.7474C24.1931 20.7107 30.8082 2.89903 30.8454 2.83566C30.8578 2.81448 35.3596 10.4139 41.7579 21.2572C47.7482 31.4089 52.6869 39.779 52.7328 39.8574L52.8163 40L32.4564 39.9974L12.0965 39.9949L24.4341 37.8638ZM102.512 36.0619C99.4126 35.8676 97.6101 34.1421 97.1325 30.9123C97.0054 30.0532 97.0049 30.0309 96.9919 24.4531L96.9794 19.0548H98.351H99.7226L99.7334 24.2764C99.7431 28.9824 99.7492 29.5342 99.7952 29.8653C99.982 31.2088 100.354 32.1124 100.987 32.7609C101.493 33.2799 102.086 33.5838 102.907 33.7451C103.295 33.8212 104.396 33.8213 104.749 33.7454C105.582 33.5663 106.249 33.2122 106.837 32.6371C107.508 31.9815 108.004 31.0515 108.244 29.9998L108.325 29.6453L108.334 24.3796L108.343 19.1138H109.743H111.144V27.3917V35.6696H109.758H108.372V34.3563C108.372 33.4639 108.362 33.0462 108.341 33.0531C108.323 33.0587 108.252 33.1651 108.182 33.2897C107.705 34.1413 106.909 34.9201 106.037 35.3893C104.992 35.9518 103.944 36.1517 102.512 36.0619ZM133.969 36.0485C132.875 35.9681 131.723 35.6004 130.781 35.0309C128.797 33.8307 127.623 31.8523 127.279 29.1297C127.16 28.1876 127.146 26.9221 127.245 26.1215C127.467 24.3328 128.185 22.5768 129.209 21.3231C129.472 21.0018 130.067 20.4197 130.396 20.1631C131.283 19.4702 132.321 18.9857 133.424 18.7499C134.066 18.6126 135.197 18.5481 135.879 18.6099C137.593 18.7652 139.164 19.5543 140.232 20.7963C141.316 22.0581 141.913 23.8212 141.989 25.9924C142.001 26.3326 142.004 26.9291 141.995 27.318L141.98 28.025L135.977 28.0325L129.974 28.0399V28.3018C129.974 29.0992 130.172 30.0074 130.515 30.7801C130.81 31.4465 131.319 32.1741 131.736 32.5262C132.59 33.2482 133.635 33.6803 134.779 33.7843C135.203 33.8229 136.284 33.7823 136.768 33.7097C138.147 33.5025 139.458 32.9736 140.517 32.1974C140.641 32.1061 140.76 32.0208 140.782 32.0078C140.813 31.9889 140.82 32.2275 140.819 33.2304L140.818 34.4765L140.534 34.648C139.337 35.3723 137.964 35.8374 136.512 36.0115C136.078 36.0635 134.487 36.0867 133.969 36.0485ZM139.193 25.5389C139.193 24.2032 138.617 22.7194 137.803 21.9554C137.221 21.4102 136.519 21.0769 135.683 20.9504C135.288 20.8905 134.455 20.9136 134.038 20.9959C133.157 21.17 132.428 21.5487 131.793 22.1627C131.124 22.809 130.622 23.5939 130.307 24.4882C130.194 24.8098 130.061 25.3378 130.02 25.6315L130 25.7714H134.597H139.193V25.5389ZM57.7624 35.6327C57.7695 35.6125 59.808 30.3762 62.2924 23.9966L66.8097 12.3973L68.2611 12.3973L69.7125 12.3972L69.8329 12.6991C70.2009 13.6219 78.8761 35.6444 78.8761 35.6559C78.8761 35.6634 78.1813 35.6695 77.332 35.6693L75.7879 35.669L74.5376 32.4141L73.2873 29.1592L68.2529 29.1592L63.2185 29.1591L63.1747 29.2696C63.1507 29.3303 62.6165 30.7949 61.9876 32.5243L60.8443 35.6685L59.297 35.669C58.0722 35.6694 57.7523 35.6619 57.7624 35.6327ZM72.3684 26.6753C72.3684 26.6701 71.5269 24.4397 70.4985 21.7188C68.5746 16.6285 68.4669 16.3223 68.3149 15.505C68.2436 15.1218 68.2076 15.1112 68.1653 15.4609C68.135 15.7108 68.0039 16.2701 67.9028 16.5803C67.8526 16.7342 66.9862 19.0593 65.9774 21.7472C64.9687 24.4351 64.1433 26.6456 64.1433 26.6594C64.1433 26.6733 65.9939 26.6846 68.2558 26.6846C70.5177 26.6846 72.3684 26.6804 72.3684 26.6753ZM79.8101 35.2456V34.8217L84.8259 28.0798L89.8417 21.3379L85.3004 21.3231L80.7591 21.3084L80.7512 20.1816L80.7433 19.0548H87.3117H93.88V19.4354V19.816L88.8636 26.5947C86.1046 30.323 83.8473 33.3796 83.8473 33.3873C83.8473 33.395 86.0775 33.4012 88.8034 33.4012H93.7595V34.5354V35.6696H86.7848H79.8101V35.2456ZM116.617 35.6499C116.606 35.6391 116.597 31.9008 116.597 27.3426V19.0548H117.968H119.338V20.7634C119.338 21.7032 119.35 22.472 119.364 22.472C119.379 22.472 119.445 22.3182 119.513 22.1302C119.821 21.2687 120.355 20.4637 121.044 19.8239C121.664 19.2475 122.373 18.9029 123.21 18.771C123.445 18.7339 123.644 18.7268 124.114 18.7388C124.704 18.7538 125.013 18.796 125.372 18.9108L125.485 18.9469V20.3382V21.7295L125.161 21.5709C124.589 21.2909 124.024 21.1801 123.346 21.2146C122.904 21.2371 122.614 21.2925 122.261 21.4221C121.534 21.6887 120.945 22.1592 120.533 22.8015C119.937 23.7314 119.512 24.9266 119.387 26.0251C119.364 26.2223 119.351 27.8278 119.346 30.993L119.338 35.6696H117.987C117.245 35.6696 116.628 35.6607 116.617 35.6499ZM0 35.5917C0 35.5812 3.01864 30.4576 6.70808 24.2058L13.4162 12.839L21.2336 6.42437C25.5333 2.89632 29.0627 0.00541723 29.0768 0.00014492C29.091 -0.00512634 29.0344 0.134066 28.9512 0.309462C28.8679 0.484858 25.048 8.49607 20.4625 18.1121L12.1252 35.5959L6.0626 35.6033C2.72817 35.6074 0 35.6022 0 35.5917Z" fill="black"/>
</g>
<defs>
<clipPath id="clip0_944_6105">
<rect width="142" height="40" fill="white"/>
</clipPath>
</defs>
</svg>
