<svg xmlns="http://www.w3.org/2000/svg" width="90" height="45" fill="none" viewBox="0 0 90 45"><g clip-path="url(#clip0_944_6125)"><path fill="#000" fill-rule="evenodd" d="M0 45H45.4858L90 0H0L0 45Z" clip-rule="evenodd"/><path fill="#F4F4F4" fill-rule="evenodd" d="M53.4115 9.00002H44.5229L44.5526 30.13L36.8127 8.99202H29.1381L22.531 26.645C21.8285 22.153 17.2338 20.603 13.6186 19.442C11.2313 18.667 8.69747 17.527 8.72319 16.267C8.74298 15.233 10.0786 14.274 12.7332 14.417C14.514 14.514 16.0872 14.659 19.2166 16.187L22.2935 10.767C19.4402 9.29902 15.4945 8.37202 12.2592 8.36902H12.2395C8.46694 8.36902 5.32566 9.60402 3.37856 11.639C2.02113 13.059 1.28898 14.865 1.2593 16.862C1.20983 19.61 2.20614 21.558 4.29967 23.115C6.06868 24.425 8.3314 25.275 10.325 25.899C12.7836 26.669 14.7921 27.339 14.7673 28.765C14.7475 29.285 14.5536 29.771 14.1836 30.163C13.5702 30.803 12.6303 31.043 11.3292 31.069C8.81916 31.123 6.95913 30.724 3.99494 28.953L1.25732 34.443C4.21854 36.145 7.3618 36.999 10.9335 36.999L11.7368 36.993C14.8455 36.936 17.3684 36.183 19.3729 34.553C19.4877 34.46 19.5905 34.366 19.6974 34.271L19.361 36.023L26.8605 35.999L28.2061 32.517C29.6209 33.005 31.2296 33.275 32.9373 33.275C34.6014 33.275 36.1666 33.019 37.5547 32.559L38.4927 35.999L51.9482 36.012L51.9809 28.074H54.8442C61.7649 28.074 65.856 24.514 65.856 18.544C65.8537 11.895 61.8767 8.99902 53.4115 8.99902L53.4115 9.00002ZM32.9373 27.062C31.9034 27.062 30.9338 26.88 30.0997 26.56L32.9056 17.605H32.96L35.7204 26.585C34.8893 26.885 33.9425 27.062 32.9363 27.062H32.9373ZM53.9319 21.917H51.9789V14.7H53.9329C56.535 14.7 58.6127 15.576 58.6127 18.262C58.6104 21.042 56.535 21.917 53.9329 21.917" clip-rule="evenodd"/></g><defs><clipPath id="clip0_944_6125"><rect width="90" height="45" fill="#fff"/></clipPath></defs></svg>